<?xml version="1.0" encoding="UTF-8" standalone="no"?>
<!-- Created with Inkscape (http://www.inkscape.org/) -->

<svg
   width="20"
   height="20"
   id="svg2"
   version="1.1"
   xmlns="http://www.w3.org/2000/svg"
   xmlns:svg="http://www.w3.org/2000/svg"
   xmlns:rdf="http://www.w3.org/1999/02/22-rdf-syntax-ns#"
   xmlns:cc="http://creativecommons.org/ns#"
   xmlns:dc="http://purl.org/dc/elements/1.1/">
  <defs
     id="defs4" />
  <metadata
     id="metadata7">
    <rdf:RDF>
      <cc:Work
         rdf:about="">
        <dc:format>image/svg+xml</dc:format>
        <dc:type
           rdf:resource="http://purl.org/dc/dcmitype/StillImage" />
        <dc:title />
      </cc:Work>
    </rdf:RDF>
  </metadata>
  <g
     id="layer1"
     transform="translate(0,-1032.3622)">
    <g
       transform="scale(0.96516945,1.0360875)"
       style="font-size:10.94554329px;font-style:normal;font-weight:normal;line-height:125%;letter-spacing:0px;word-spacing:0px;fill:#005596;fill-opacity:1;stroke:none;font-family:Sans"
       id="text2996">
      <path
         d="m 0.45558062,1002.0839 6.70735198,0 0,1.2453 -4.2809474,5.1788 4.403871,0 0,1.5553 -6.95319916,0 0,-1.2453 4.28094736,-5.1788 -4.15802378,0 0,-1.5553"
         style="font-weight:bold;fill:#005596;-inkscape-font-specification:Sans Bold"
         id="path3041" />
      <path
         d="m 7.9396227,1004.0774 5.2215803,0 0,1.3362 -3.153257,3.2815 3.153257,0 0,1.3682 -5.3551928,0 0,-1.3361 3.1532578,-3.2816 -3.0196453,0 0,-1.3682"
         style="font-weight:bold;fill:#005596;-inkscape-font-specification:Sans Bold"
         id="path3043" />
      <path
         d="m 14.768161,1004.0774 5.22158,0 0,1.3362 -3.153257,3.2815 3.153257,0 0,1.3682 -5.355193,0 0,-1.3361 3.153257,-3.2816 -3.019644,0 0,-1.3682"
         style="font-weight:bold;fill:#005596;-inkscape-font-specification:Sans Bold"
         id="path3045" />
    </g>
  </g>
</svg>
