<?xml version="1.0" encoding="UTF-8" standalone="no"?>
<!-- Created with Inkscape (http://www.inkscape.org/) -->

<svg
   width="16"
   height="16"
   id="svg2"
   version="1.1"
   xmlns="http://www.w3.org/2000/svg"
   xmlns:svg="http://www.w3.org/2000/svg"
   xmlns:rdf="http://www.w3.org/1999/02/22-rdf-syntax-ns#"
   xmlns:cc="http://creativecommons.org/ns#"
   xmlns:dc="http://purl.org/dc/elements/1.1/">
  <defs
     id="defs4" />
  <metadata
     id="metadata7">
    <rdf:RDF>
      <cc:Work
         rdf:about="">
        <dc:format>image/svg+xml</dc:format>
        <dc:type
           rdf:resource="http://purl.org/dc/dcmitype/StillImage" />
        <dc:title />
      </cc:Work>
    </rdf:RDF>
  </metadata>
  <g
     id="layer1"
     style="display:inline"
     transform="translate(0,-1036.3622)">
    <g
       style="display:inline"
       id="layer1-0"
       transform="matrix(0.77393739,0,0,0.77393739,-0.808785,233.54106)">
      <g
         style="display:inline"
         id="g8248">
        <path
           transform="matrix(1.2920942,0,0,1.2920942,1.0450264,1037.3205)"
           d="m 4.5961941,8.5753784 c 0,0.5613787 -0.4550873,1.016466 -1.016466,1.016466 -0.5613787,0 -1.016466,-0.4550873 -1.016466,-1.016466 0,-0.5613787 0.4550873,-1.016466 1.016466,-1.016466 0.5613787,0 1.016466,0.4550873 1.016466,1.016466 z"
           id="path7442"
           style="fill:#466f0a;fill-opacity:1;stroke:#466f0a;stroke-width:0.89999998;stroke-miterlimit:4;stroke-opacity:1;stroke-dasharray:none" />
        <path
           transform="matrix(1.2920942,0,0,1.2920942,7.4976695,1037.3205)"
           d="m 4.5961941,8.5753784 c 0,0.5613787 -0.4550873,1.016466 -1.016466,1.016466 -0.5613787,0 -1.016466,-0.4550873 -1.016466,-1.016466 0,-0.5613787 0.4550873,-1.016466 1.016466,-1.016466 0.5613787,0 1.016466,0.4550873 1.016466,1.016466 z"
           id="path7442-9"
           style="fill:#668834;fill-opacity:1;stroke:#668833;stroke-width:0.89999998;stroke-miterlimit:4;stroke-opacity:1;stroke-dasharray:none;display:inline" />
        <path
           transform="matrix(1.2920942,0,0,1.2920942,13.978864,1037.2348)"
           d="m 4.5961941,8.5753784 c 0,0.5613787 -0.4550873,1.016466 -1.016466,1.016466 -0.5613787,0 -1.016466,-0.4550873 -1.016466,-1.016466 0,-0.5613787 0.4550873,-1.016466 1.016466,-1.016466 0.5613787,0 1.016466,0.4550873 1.016466,1.016466 z"
           id="path7442-9-9"
           style="fill:#749347;fill-opacity:1;stroke:#749347;stroke-width:0.89999998;stroke-miterlimit:4;stroke-opacity:1;stroke-dasharray:none;display:inline" />
      </g>
    </g>
  </g>
</svg>
