<?xml version="1.0" encoding="UTF-8" standalone="no"?>
<!-- Created with Inkscape (http://www.inkscape.org/) -->

<svg
   width="16"
   height="16"
   id="svg2"
   version="1.1"
   xmlns:xlink="http://www.w3.org/1999/xlink"
   xmlns="http://www.w3.org/2000/svg"
   xmlns:svg="http://www.w3.org/2000/svg"
   xmlns:rdf="http://www.w3.org/1999/02/22-rdf-syntax-ns#"
   xmlns:cc="http://creativecommons.org/ns#"
   xmlns:dc="http://purl.org/dc/elements/1.1/">
  <defs
     id="defs4">
    <linearGradient
       id="linearGradient4883-7-9">
      <stop
         style="stop-color:#7f7f3f;stop-opacity:1"
         offset="0"
         id="stop4885-4-9" />
      <stop
         style="stop-color:#7f5f3f;stop-opacity:1"
         offset="1"
         id="stop4887-0-8" />
    </linearGradient>
    <linearGradient
       y2="1052.2216"
       x2="11"
       y1="1043.3622"
       x1="11"
       gradientTransform="matrix(-1,0,0,1,15.987978,-7)"
       gradientUnits="userSpaceOnUse"
       id="linearGradient4142-9"
       xlink:href="#linearGradient4883-7-9" />
    <linearGradient
       xlink:href="#linearGradient4883-7-9"
       id="linearGradient4253"
       gradientUnits="userSpaceOnUse"
       gradientTransform="matrix(-1,0,0,1,15.987978,-7)"
       x1="11"
       y1="1043.3622"
       x2="11"
       y2="1052.2216" />
    <linearGradient
       xlink:href="#linearGradient4883-7-9"
       id="linearGradient4217"
       gradientUnits="userSpaceOnUse"
       gradientTransform="matrix(-1,0,0,1,15.987978,-7)"
       x1="11"
       y1="1043.3622"
       x2="11"
       y2="1052.2216" />
    <linearGradient
       xlink:href="#linearGradient4883-7-9"
       id="linearGradient4219"
       gradientUnits="userSpaceOnUse"
       gradientTransform="matrix(-1,0,0,1,15.987978,-7)"
       x1="11"
       y1="1043.3622"
       x2="11"
       y2="1052.2216" />
  </defs>
  <metadata
     id="metadata7">
    <rdf:RDF>
      <cc:Work
         rdf:about="">
        <dc:format>image/svg+xml</dc:format>
        <dc:type
           rdf:resource="http://purl.org/dc/dcmitype/StillImage" />
        <dc:title />
      </cc:Work>
    </rdf:RDF>
  </metadata>
  <g
     id="layer1"
     style="display:inline"
     transform="translate(0,-1036.3622)">
    <g
       style="display:inline"
       id="g4105-1"
       transform="matrix(-0.76488996,0,0,0.76488996,9.760959,251.34329)">
      <g
         id="g4220">
        <path
           style="display:inline;fill:#ffdf3f;fill-opacity:1;stroke:none"
           d="m 11.987978,1040.3622 0,1.858 -7.0000023,0 0,3.4044 -4.25989613,-4.2713 4.28878533,-4.3667 -0.028889,3.3756 z"
           id="path4108-1-2-3" />
        <path
           style="display:inline;fill:url(#linearGradient4142-9);fill-opacity:1;stroke:none"
           d="m 6.1902004,1035.9741 0,3.4494 4.7977776,0 0.942222,0.026 c 0.99185,0.9918 1.044102,2.8526 0.05778,3.8389 l -1,0 -4.7688884,0 0,3.4622 c 0,0.6519 -0.9720289,0.6375 -1.7311139,0 l -4.82194279,-5.3642 4.82194279,-5.4117 c 0.760225,-0.7602 1.7022247,-0.5203 1.7022247,0 z m -1.2769261,1.3713 -3.5930723,3.9791 3.5895674,3.9345 0.00598,-3.2456 6.5675036,0 c 0.276213,-0.2099 0.219666,-0.975 -0.05778,-1.2468 l -6.5122039,-0.072 z"
           id="path4108-1-6-4-3" />
      </g>
      <g
         style="display:inline"
         id="g4220-1">
        <path
           style="display:inline;fill:#ffdf3f;fill-opacity:1;stroke:none"
           d="m 11.987978,1040.3622 0,1.858 -7.0000023,0 0,3.4044 -4.25989613,-4.2713 4.28878533,-4.3667 -0.028889,3.3756 z"
           id="path4108-1-2-3-3" />
        <path
           style="display:inline;fill:url(#linearGradient4253);fill-opacity:1;stroke:none"
           d="m 6.1902004,1035.9741 0,3.4494 4.7977776,0 0.942222,0.026 c 0.99185,0.9918 1.044102,2.8526 0.05778,3.8389 l -1,0 -4.7688884,0 0,3.4622 c 0,0.6519 -0.9720289,0.6375 -1.7311139,0 l -4.82194279,-5.3642 4.82194279,-5.4117 c 0.760225,-0.7602 1.7022247,-0.5203 1.7022247,0 z m -1.2769261,1.3713 -3.5675376,4.0455 3.5640327,4.0315 0.00598,-3.409 6.5675036,0 c 0.276213,-0.2099 0.250308,-1.0414 -0.02714,-1.3132 l -6.5428459,0 z"
           id="path4108-1-6-4-3-8" />
      </g>
    </g>
    <g
       style="display:inline"
       id="g4105-1-1"
       transform="matrix(0.76488996,0,0,0.76488996,6.2699229,244.37458)">
      <g
         style="display:inline"
         id="g4220-1-9" />
    </g>
    <g
       style="display:inline"
       id="g4105-1-9"
       transform="matrix(0.76488996,0,0,0.76488996,6.2673863,244.36065)">
      <g
         id="g4220-17">
        <path
           style="display:inline;fill:#ffdf3f;fill-opacity:1;stroke:none"
           d="m 11.987978,1040.3622 0,1.858 -7.0000023,0 0,3.4044 -4.25989613,-4.2713 4.28878533,-4.3667 -0.028889,3.3756 z"
           id="path4108-1-2-3-8" />
        <path
           style="display:inline;fill:url(#linearGradient4217);fill-opacity:1;stroke:none"
           d="m 6.1902004,1035.9741 0,3.4494 4.7977776,0 0.942222,0.026 c 0.99185,0.9918 1.044102,2.8526 0.05778,3.8389 l -1,0 -4.7688884,0 0,3.4622 c 0,0.6519 -0.9720289,0.6375 -1.7311139,0 l -4.82194279,-5.3642 4.82194279,-5.4117 c 0.760225,-0.7602 1.7022247,-0.5203 1.7022247,0 z m -1.2769261,1.3713 -3.5930723,3.9791 3.5895674,3.9345 0.00598,-3.2456 6.5675036,0 c 0.276213,-0.2099 0.219666,-0.975 -0.05778,-1.2468 l -6.5122039,-0.072 z"
           id="path4108-1-6-4-3-6" />
      </g>
      <g
         style="display:inline"
         id="g4220-1-1">
        <path
           style="display:inline;fill:#ffdf3f;fill-opacity:1;stroke:none"
           d="m 11.987978,1040.3622 0,1.858 -7.0000023,0 0,3.4044 -4.25989613,-4.2713 4.28878533,-4.3667 -0.028889,3.3756 z"
           id="path4108-1-2-3-3-2" />
        <path
           style="display:inline;fill:url(#linearGradient4219);fill-opacity:1;stroke:none"
           d="m 6.1902004,1035.9741 0,3.4494 4.7977776,0 0.942222,0.026 c 0.99185,0.9918 1.044102,2.8526 0.05778,3.8389 l -1,0 -4.7688884,0 0,3.4622 c 0,0.6519 -0.9720289,0.6375 -1.7311139,0 l -4.82194279,-5.3642 4.82194279,-5.4117 c 0.760225,-0.7602 1.7022247,-0.5203 1.7022247,0 z m -1.2769261,1.3713 -3.5675376,4.0455 3.5640327,4.0315 0.00598,-3.409 6.5675036,0 c 0.276213,-0.2099 0.250308,-1.0414 -0.02714,-1.3132 l -6.5428459,0 z"
           id="path4108-1-6-4-3-8-7" />
      </g>
    </g>
  </g>
</svg>
