<?xml version="1.0" encoding="UTF-8" standalone="no"?>
<!-- Created with Inkscape (http://www.inkscape.org/) -->

<svg
   width="8"
   height="8"
   id="svg2"
   version="1.1"
   xmlns="http://www.w3.org/2000/svg"
   xmlns:svg="http://www.w3.org/2000/svg"
   xmlns:rdf="http://www.w3.org/1999/02/22-rdf-syntax-ns#"
   xmlns:cc="http://creativecommons.org/ns#"
   xmlns:dc="http://purl.org/dc/elements/1.1/">
  <defs
     id="defs4" />
  <metadata
     id="metadata7">
    <rdf:RDF>
      <cc:Work
         rdf:about="">
        <dc:format>image/svg+xml</dc:format>
        <dc:type
           rdf:resource="http://purl.org/dc/dcmitype/StillImage" />
        <dc:title />
      </cc:Work>
    </rdf:RDF>
  </metadata>
  <g
     id="layer1"
     style="display:inline"
     transform="translate(0,-1044.3622)">
    <g
       style="display:inline"
       id="g8472"
       transform="matrix(0.9346781,0,0,0.9346781,-14.571811,69.044514)">
      <path
         style="fill:#888888;fill-opacity:1;stroke:none"
         d="m 19.869741,1043.4798 c -1.778161,0 -3.209662,1.4315 -3.209662,3.2097 l 0,5.3494 7.48921,0 0,-5.3494 c 0,-1.7782 -1.431501,-3.2097 -3.209661,-3.2097 l -1.069887,0 z"
         id="rect4177" />
      <path
         style="fill:#000000;fill-opacity:1;stroke:none"
         id="path4966"
         d="m 6,3.03125 c 0,0.8284271 -0.6715729,1.5 -1.5,1.5 -0.8284271,0 -1.5,-0.6715729 -1.5,-1.5 0,-0.8284271 0.6715729,-1.5 1.5,-1.5 0.8284271,0 1.5,0.6715729 1.5,1.5 z"
         transform="matrix(1.2147676,0,0,1.2147676,14.93823,1043.0406)" />
      <path
         style="fill:#000000;fill-opacity:1;stroke:none"
         d="m 19.869741,1047.7593 -1.069888,3.2097 3.209661,0 -1.069886,-3.2097 z"
         id="rect4968" />
    </g>
  </g>
</svg>
