<?xml version="1.0" encoding="UTF-8" standalone="no"?>
<!-- Created with Inkscape (http://www.inkscape.org/) -->

<svg
   width="16"
   height="16"
   id="svg2"
   version="1.1"
   xmlns:xlink="http://www.w3.org/1999/xlink"
   xmlns="http://www.w3.org/2000/svg"
   xmlns:svg="http://www.w3.org/2000/svg"
   xmlns:rdf="http://www.w3.org/1999/02/22-rdf-syntax-ns#"
   xmlns:cc="http://creativecommons.org/ns#"
   xmlns:dc="http://purl.org/dc/elements/1.1/">
  <defs
     id="defs4">
    <linearGradient
       id="linearGradient4894">
      <stop
         id="stop4896"
         offset="0"
         style="stop-color:#b4d1e5;stop-opacity:1" />
      <stop
         style="stop-color:#5395be;stop-opacity:1"
         offset="0.5"
         id="stop4898" />
      <stop
         id="stop4900"
         offset="1"
         style="stop-color:#91bcd7;stop-opacity:1" />
    </linearGradient>
    <linearGradient
       y2="6.8716693"
       x2="8.7378912"
       y1="2.1550355"
       x1="8.7378912"
       gradientUnits="userSpaceOnUse"
       id="linearGradient4871"
       xlink:href="#linearGradient4894" />
    <linearGradient
       id="linearGradient4894-7">
      <stop
         id="stop4896-4"
         offset="0"
         style="stop-color:#b4d1e5;stop-opacity:1" />
      <stop
         style="stop-color:#5395be;stop-opacity:1"
         offset="0.5"
         id="stop4898-0" />
      <stop
         id="stop4900-9"
         offset="1"
         style="stop-color:#91bcd7;stop-opacity:1" />
    </linearGradient>
    <linearGradient
       y2="6.8716693"
       x2="8.7378912"
       y1="2.1550355"
       x1="8.7378912"
       gradientUnits="userSpaceOnUse"
       id="linearGradient4064"
       xlink:href="#linearGradient4894-7" />
    <linearGradient
       id="linearGradient4894-8">
      <stop
         id="stop4896-2"
         offset="0"
         style="stop-color:#b4d1e5;stop-opacity:1" />
      <stop
         style="stop-color:#5395be;stop-opacity:1"
         offset="0.5"
         id="stop4898-4" />
      <stop
         id="stop4900-5"
         offset="1"
         style="stop-color:#91bcd7;stop-opacity:1" />
    </linearGradient>
    <linearGradient
       y2="6.8716693"
       x2="8.7378912"
       y1="2.1550355"
       x1="8.7378912"
       gradientUnits="userSpaceOnUse"
       id="linearGradient4064-5"
       xlink:href="#linearGradient4894-8" />
  </defs>
  <metadata
     id="metadata7">
    <rdf:RDF>
      <cc:Work
         rdf:about="">
        <dc:format>image/svg+xml</dc:format>
        <dc:type
           rdf:resource="http://purl.org/dc/dcmitype/StillImage" />
        <dc:title />
      </cc:Work>
    </rdf:RDF>
  </metadata>
  <g
     id="layer1"
     style="display:inline"
     transform="translate(0,-1036.3622)">
    <path
       style="fill:url(#linearGradient4871);fill-opacity:1;stroke:#264e72;stroke-width:0.93798536;stroke-miterlimit:4;stroke-opacity:1;stroke-dasharray:none;display:inline"
       id="path4035-4-5"
       d="m 11.343751,4.499999 c 0,1.553301 -1.259199,2.8125003 -2.8125,2.8125003 -1.553301,0 -2.8125003,-1.2591993 -2.8125003,-2.8125003 0,-1.5533009 1.2591993,-2.8125002 2.8125003,-2.8125002 1.553301,0 2.8125,1.2591993 2.8125,2.8125002 z"
       transform="matrix(1.0661147,0,0,1.0661147,-4.59529,1043.0648)" />
    <path
       style="fill:url(#linearGradient4064);fill-opacity:1;stroke:#264e72;stroke-width:0.93798536;stroke-miterlimit:4;stroke-opacity:1;stroke-dasharray:none;display:inline"
       id="path4035-4-5-4"
       d="m 11.343751,4.499999 c 0,1.553301 -1.259199,2.8125003 -2.8125,2.8125003 -1.553301,0 -2.8125003,-1.2591993 -2.8125003,-2.8125003 0,-1.5533009 1.2591993,-2.8125002 2.8125003,-2.8125002 1.553301,0 2.8125,1.2591993 2.8125,2.8125002 z"
       transform="matrix(1.0661147,0,0,1.0661147,-0.595291,1036.0648)" />
    <path
       style="fill:url(#linearGradient4064-5);fill-opacity:1;stroke:#264e72;stroke-width:0.93798536;stroke-miterlimit:4;stroke-opacity:1;stroke-dasharray:none;display:inline"
       id="path4035-4-5-1"
       d="m 11.343751,4.499999 c 0,1.553301 -1.259199,2.8125003 -2.8125,2.8125003 -1.553301,0 -2.8125003,-1.2591993 -2.8125003,-2.8125003 0,-1.5533009 1.2591993,-2.8125002 2.8125003,-2.8125002 1.553301,0 2.8125,1.2591993 2.8125,2.8125002 z"
       transform="matrix(1.0661147,0,0,1.0661147,3.40471,1043.0648)" />
  </g>
</svg>
