<?xml version="1.0" encoding="UTF-8" standalone="no"?>
<!-- Created with Inkscape (http://www.inkscape.org/) -->

<svg
   width="75"
   height="66"
   id="svg2"
   version="1.1"
   xml:space="preserve"
   xmlns:xlink="http://www.w3.org/1999/xlink"
   xmlns="http://www.w3.org/2000/svg"
   xmlns:svg="http://www.w3.org/2000/svg"
   xmlns:rdf="http://www.w3.org/1999/02/22-rdf-syntax-ns#"
   xmlns:cc="http://creativecommons.org/ns#"
   xmlns:dc="http://purl.org/dc/elements/1.1/"><defs
     id="defs4"><linearGradient
       id="linearGradient8"><stop
         style="stop-color:#f8e2a9;stop-opacity:1;"
         offset="0"
         id="stop7" /><stop
         style="stop-color:#f6c75a;stop-opacity:1;"
         offset="1"
         id="stop8" /></linearGradient><linearGradient
       id="linearGradient3"><stop
         style="stop-color:#a07e5f;stop-opacity:0.98039216;"
         offset="0"
         id="stop3" /><stop
         style="stop-color:#ddbe9c;stop-opacity:0.95294118;"
         offset="1"
         id="stop4" /></linearGradient><linearGradient
       id="linearGradient4643"><stop
         style="stop-color:#ffffff;stop-opacity:1"
         offset="0"
         id="stop4645" /><stop
         style="stop-color:#eff0f0;stop-opacity:0.5971897"
         offset="1"
         id="stop4647" /></linearGradient><linearGradient
       id="linearGradient5498"><stop
         style="stop-color:#d2c050;stop-opacity:1"
         offset="0"
         id="stop5500" /><stop
         style="stop-color:#f1e975;stop-opacity:1"
         offset="1"
         id="stop5502" /></linearGradient><linearGradient
       id="linearGradient5482"><stop
         style="stop-color:#e6ea8a;stop-opacity:1"
         offset="0"
         id="stop5484" /><stop
         style="stop-color:#e6e981;stop-opacity:1"
         offset="1"
         id="stop5486" /></linearGradient><linearGradient
       id="linearGradient5474"><stop
         style="stop-color:#eeed8e;stop-opacity:1"
         offset="0"
         id="stop5476" /><stop
         style="stop-color:#e4e55c;stop-opacity:1"
         offset="1"
         id="stop5478" /></linearGradient><linearGradient
       xlink:href="#linearGradient4972-7"
       id="linearGradient4978"
       x1="88.220116"
       y1="1032.2668"
       x2="163.22012"
       y2="1032.2668"
       gradientUnits="userSpaceOnUse"
       gradientTransform="translate(-88.220116,-999.2669)" /><linearGradient
       id="linearGradient4972-7"><stop
         style="stop-color:#b8ccf1;stop-opacity:0.10196079"
         offset="0"
         id="stop4974-8" /><stop
         style="stop-color:#6e97e2;stop-opacity:0.10196079"
         offset="1"
         id="stop4976-1" /></linearGradient><linearGradient
       xlink:href="#linearGradient4964-3"
       id="linearGradient4970"
       x1="118.38584"
       y1="1032.1835"
       x2="163.22012"
       y2="1032.2668"
       gradientUnits="userSpaceOnUse"
       gradientTransform="translate(-88.220117,-999.2669)" /><linearGradient
       id="linearGradient4964-3"><stop
         style="stop-color:#ffffff;stop-opacity:0.349"
         offset="0"
         id="stop4966-1" /><stop
         style="stop-color:#91ade6;stop-opacity:1"
         offset="1"
         id="stop4968-1" /></linearGradient><linearGradient
       xlink:href="#linearGradient4956-2"
       id="linearGradient4962"
       x1="88.220116"
       y1="1042.7972"
       x2="163.22012"
       y2="1042.7972"
       gradientUnits="userSpaceOnUse"
       gradientTransform="translate(-88.220116,-999.2669)" /><linearGradient
       id="linearGradient4956-2"><stop
         style="stop-color:#fcfdfe;stop-opacity:0.25641027"
         offset="0"
         id="stop4958-5" /><stop
         style="stop-color:#98aae7;stop-opacity:0.40392157"
         offset="1"
         id="stop4960-6" /></linearGradient><filter
       style="color-interpolation-filters:sRGB"
       id="filter5535"
       x="-0.48403505"
       width="1.9680701"
       y="-0.56926341"
       height="2.1385268"><feGaussianBlur
         stdDeviation="5.2543488"
         id="feGaussianBlur5537" /></filter><linearGradient
       xlink:href="#linearGradient4527"
       id="linearGradient4533"
       x1="29.521629"
       y1="29.827848"
       x2="31.546745"
       y2="39.175972"
       gradientUnits="userSpaceOnUse"
       gradientTransform="translate(7.8401465,985.96231)" /><linearGradient
       id="linearGradient4527"><stop
         style="stop-color:#68b367;stop-opacity:1"
         offset="0"
         id="stop4529" /><stop
         style="stop-color:#5eaa6e;stop-opacity:1"
         offset="1"
         id="stop4531" /></linearGradient><linearGradient
       xlink:href="#linearGradient4578"
       id="linearGradient4584"
       x1="42.780308"
       y1="1025.5621"
       x2="40.143147"
       y2="1039.7532"
       gradientUnits="userSpaceOnUse"
       gradientTransform="translate(-0.3799698,-13.30459)" /><linearGradient
       id="linearGradient4578"><stop
         style="stop-color:#c5f0b4;stop-opacity:1"
         offset="0"
         id="stop4580" /><stop
         style="stop-color:#80c171;stop-opacity:1"
         offset="1"
         id="stop4582" /></linearGradient><linearGradient
       xlink:href="#linearGradient4994"
       id="linearGradient6375-6"
       x1="50.702839"
       y1="1052.4476"
       x2="22.530088"
       y2="1014.1386"
       gradientUnits="userSpaceOnUse"
       gradientTransform="matrix(0.60603726,0,0,0.61689568,4.484992,393.46797)" /><linearGradient
       id="linearGradient4994"><stop
         id="stop4996"
         offset="0"
         style="stop-color:#ffffff;stop-opacity:1" /><stop
         id="stop4998"
         offset="1"
         style="stop-color:#dbe2eb;stop-opacity:1" /></linearGradient><linearGradient
       xlink:href="#linearGradient4902"
       id="linearGradient4238"
       gradientUnits="userSpaceOnUse"
       gradientTransform="matrix(2.0976049,0,0,2.1046168,3.968872,-1169.6474)"
       x1="10.544736"
       y1="1038.5779"
       x2="10.544736"
       y2="1052.3228" /><linearGradient
       id="linearGradient4902"><stop
         id="stop4904"
         offset="0"
         style="stop-color:#c7b571;stop-opacity:1;" /><stop
         id="stop4906"
         offset="1"
         style="stop-color:#9a9a8f;stop-opacity:1" /></linearGradient><linearGradient
       xlink:href="#linearGradient5474"
       id="linearGradient5480"
       x1="70.505638"
       y1="999.07928"
       x2="89.788399"
       y2="1023.0229"
       gradientUnits="userSpaceOnUse" /><linearGradient
       xlink:href="#linearGradient5482"
       id="linearGradient5488"
       x1="73.133461"
       y1="995.80939"
       x2="80.763161"
       y2="1002.5087"
       gradientUnits="userSpaceOnUse" /><linearGradient
       xlink:href="#linearGradient5498"
       id="linearGradient5496"
       x1="79.21241"
       y1="1026.5577"
       x2="74.187973"
       y2="1034.8698"
       gradientUnits="userSpaceOnUse" /><filter
       style="color-interpolation-filters:sRGB"
       id="filter5598"
       x="-0.25802148"
       width="1.516043"
       y="-0.75972987"
       height="2.5194597"><feGaussianBlur
         stdDeviation="1.0603373"
         id="feGaussianBlur5600" /></filter><filter
       style="color-interpolation-filters:sRGB"
       id="filter5598-1"
       x="-0.25802148"
       width="1.516043"
       y="-0.75972987"
       height="2.5194597"><feGaussianBlur
         stdDeviation="1.0603373"
         id="feGaussianBlur5600-1" /></filter><filter
       style="color-interpolation-filters:sRGB"
       id="filter5669"
       x="-0.47478007"
       width="1.9495601"
       y="-0.54807156"
       height="2.0961431"><feGaussianBlur
         stdDeviation="1.6064558"
         id="feGaussianBlur5671" /></filter><filter
       style="color-interpolation-filters:sRGB"
       id="filter5669-1"
       x="-0.47478019"
       width="1.9495604"
       y="-0.54807156"
       height="2.0961431"><feGaussianBlur
         stdDeviation="1.6064558"
         id="feGaussianBlur5671-9" /></filter><filter
       height="1.0954513"
       y="-0.047725668"
       width="1.0967932"
       x="-0.048396592"
       id="filter4285-9-8-5"
       style="color-interpolation-filters:sRGB"><feGaussianBlur
         id="feGaussianBlur4287-9-5-9"
         stdDeviation="0.10000000000000001" /></filter><filter
       style="color-interpolation-filters:sRGB"
       id="filter7334"
       x="-0.20073826"
       width="1.4014765"
       y="-0.19795542"
       height="1.3959108"><feGaussianBlur
         stdDeviation="0.41477771"
         id="feGaussianBlur7336" /></filter><filter
       style="color-interpolation-filters:sRGB"
       id="filter4639"
       x="-0.044742015"
       width="1.089484"
       y="-0.11772535"
       height="1.2354507"><feGaussianBlur
         stdDeviation="1.0394838"
         id="feGaussianBlur4641" /></filter><linearGradient
       xlink:href="#linearGradient4643"
       id="linearGradient4649"
       x1="-439.69722"
       y1="937.94653"
       x2="-378.22624"
       y2="937.94653"
       gradientUnits="userSpaceOnUse" /><linearGradient
       xlink:href="#linearGradient8"
       id="linearGradient1"
       gradientUnits="userSpaceOnUse"
       gradientTransform="matrix(0.61967013,0.66437982,-0.73128456,0.6820725,163.21094,958.51087)"
       x1="24.377775"
       y1="29.884312"
       x2="40.726192"
       y2="37.610535" /><linearGradient
       xlink:href="#linearGradient3"
       id="linearGradient4"
       x1="159.69443"
       y1="1013.6866"
       x2="154.77658"
       y2="992.36163"
       gradientUnits="userSpaceOnUse" /><filter
       style="color-interpolation-filters:sRGB"
       id="filter10"
       x="-0.12577781"
       y="-0.10253191"
       width="1.2760863"
       height="1.1994041"><feGaussianBlur
         stdDeviation="0.51896344"
         id="feGaussianBlur10" /></filter></defs><metadata
     id="metadata7"><rdf:RDF><cc:Work
         rdf:about=""><dc:format>image/svg+xml</dc:format><dc:type
           rdf:resource="http://purl.org/dc/dcmitype/StillImage" /></cc:Work></rdf:RDF></metadata><g
     id="layer2"
     style="display:inline"><path
       id="rect4113-1"
       d="M 75,0 75,66 1e-6,66 C 1e-6,41.2048 50.00969,0 75,0 Z"
       style="display:inline;fill:url(#linearGradient4978);fill-opacity:1;stroke:none" /><path
       id="rect4113-1-0"
       d="M 75,21.0607 75,66 1e-6,66 C 10.625001,47.804 43.509694,25.4357 75,21.0607 Z"
       style="display:inline;opacity:0.40400002;fill:url(#linearGradient4962);fill-opacity:1;stroke:none" /><g
       id="g11331-3-1-1-7"
       style="display:inline"
       transform="matrix(0.27903303,0,0,0.27903303,-14.618136,-107.52874)"><g
         style="fill:#737986;fill-opacity:1;stroke:#595e68;stroke-opacity:1"
         id="g13408-8-2" /></g><path
       id="rect4113-1-7"
       d="M 75,4.0000001e-7 75,66 30.000003,66 C 30.000003,46.1545 47.70944,9.2500004 75,4e-7 Z"
       style="display:inline;opacity:0.18399999;fill:url(#linearGradient4970);fill-opacity:1;stroke:none" /></g><g
     id="layer1"
     style="display:inline"
     transform="translate(0,-986.3622)"><ellipse
       style="display:inline;opacity:0.596;fill:url(#linearGradient4649);fill-opacity:1;stroke:none;stroke-width:3;stroke-linecap:round;stroke-linejoin:miter;stroke-miterlimit:4;stroke-dasharray:none;stroke-dashoffset:0;stroke-opacity:1;filter:url(#filter4639)"
       id="path4603"
       cx="-408.96173"
       cy="937.94653"
       rx="27.8794"
       ry="10.595683"
       transform="matrix(0.76342068,-0.52441377,0.50103752,0.78568795,-105.37827,72.547593)" /><g
       transform="matrix(0.92787456,0,0,0.92766861,-334.80763,585.97703)"
       style="display:inline"
       id="g11331-3-1-1"><g
         id="g13408-8"
         style="fill:#737986;fill-opacity:1;stroke:#595e68;stroke-width:0.30075619;stroke-opacity:1" /></g><g
       id="g11331-3-1-1-00"
       style="display:inline"
       transform="matrix(0,-0.14879357,0.14879357,0,3.0151033,1093.2759)"><g
         style="fill:#737986;fill-opacity:1;stroke:#595e68;stroke-opacity:1"
         id="g13408-8-1" /></g><g
       transform="matrix(0.27903303,0,0,0.27903303,71.714017,852.06346)"
       style="display:inline"
       id="g11331-3-1-1-0"><g
         id="g13408-8-4"
         style="fill:#737986;fill-opacity:1;stroke:#595e68;stroke-opacity:1" /></g><path
       style="display:inline;opacity:0.799;fill:#ffffff;fill-opacity:1;stroke:none;stroke-width:1.5;stroke-linecap:round;stroke-linejoin:miter;stroke-miterlimit:4;stroke-dasharray:none;stroke-dashoffset:0;stroke-opacity:1;filter:url(#filter5535)"
       d="m 44.264734,1011.5996 a 19.925179,19.996828 0 0 0 -16.566406,8.9061 13.02639,11.919721 0 0 0 -0.08789,1.3262 13.02639,11.919721 0 0 0 13.027344,11.9199 13.02639,11.919721 0 0 0 13.025391,-11.9199 13.02639,11.919721 0 0 0 -5.744141,-9.8788 19.925179,19.996828 0 0 0 -3.654298,-0.3535 z"
       id="path5381-3"
       transform="matrix(0.79757984,0,0,0.78004748,10.141504,222.15002)" /><g
       id="g5694"
       transform="translate(-38.924812,8.7293233)"><path
         id="path5466"
         d="m 74,1009.3622 c -4.360356,-11.30323 -11.915414,-4.7519 -10.379699,-0.6353 6.542607,7.7312 18.343211,17.8925 18.945489,22.5733 4.498746,-5.3333 14.876804,-14.3197 13.55827,-16.7444 C 93.412209,1007.0222 88.041353,1004.4267 84,999.3622 Z"
         style="fill:url(#linearGradient5480);fill-opacity:1;fill-rule:evenodd;stroke:none;stroke-width:1px;stroke-linecap:butt;stroke-linejoin:miter;stroke-opacity:1" /><path
         id="path5468"
         d="m 66.186091,1003.1724 14.887217,-15.01133 c 5.924898,-0.66423 7.177548,2.56508 7.195489,6.82331 L 74.18797,1008.8791 c -1.403844,-3.0454 -2.623343,-6 -8.001879,-5.7067 z"
         style="fill:url(#linearGradient5488);fill-opacity:1;fill-rule:evenodd;stroke:none;stroke-width:1px;stroke-linecap:butt;stroke-linejoin:miter;stroke-opacity:1" /><path
         id="path5472"
         d="m 76.731203,1023.3942 -7.691729,5.9548 c 0.36563,4.5917 10.310848,9.7667 12.964285,1.3027 -0.262024,-3.3806 -2.746161,-5.3326 -5.272556,-7.2575 z"
         style="fill:url(#linearGradient5496);fill-opacity:1;fill-rule:evenodd;stroke:none;stroke-width:1px;stroke-linecap:butt;stroke-linejoin:miter;stroke-opacity:1" /><ellipse
         transform="matrix(1.0737017,-1.1533032,1.015164,1.2198065,0.85854292,-702.09078)"
         ry="1.6748121"
         rx="4.9313908"
         cy="783.27002"
         cx="-661.98718"
         id="path5504"
         style="opacity:0.77;fill:#fffff7;fill-opacity:1;stroke:none;stroke-width:3;stroke-linecap:round;stroke-linejoin:miter;stroke-miterlimit:4;stroke-dasharray:none;stroke-dashoffset:0;stroke-opacity:1;filter:url(#filter5598)" /><ellipse
         transform="matrix(1.0737017,-1.1533032,1.015164,1.2198065,-7.3294088,-721.38218)"
         ry="1.6748121"
         rx="4.9313908"
         cy="783.27002"
         cx="-661.98718"
         id="path5504-3"
         style="display:inline;opacity:0.77;fill:#fffff7;fill-opacity:1;stroke:none;stroke-width:3;stroke-linecap:round;stroke-linejoin:miter;stroke-miterlimit:4;stroke-dasharray:none;stroke-dashoffset:0;stroke-opacity:1;filter:url(#filter5598-1)" /><path
         id="path5623"
         d="m 64.945489,1010.2438 c -2.541072,-3.3692 -1.279353,-4.8371 0.06203,-6.2651 2.65242,-1.1694 4.914216,-1.1017 6.575188,0.8685 0.24154,2.1261 -1.916474,3.9322 -6.637218,5.3966 z"
         style="fill:#bbb03f;fill-opacity:1;fill-rule:evenodd;stroke:none;stroke-width:1px;stroke-linecap:butt;stroke-linejoin:miter;stroke-opacity:1;filter:url(#filter5669)" /><path
         transform="rotate(149.28632,87.055143,1021.3671)"
         id="path5623-7"
         d="m 97.583434,1022.8795 c -2.541072,-3.3692 -1.279353,-4.8371 0.06203,-6.2651 2.652416,-1.1694 4.914216,-1.1017 6.575186,0.8685 0.24154,2.1261 -1.91647,3.9322 -6.637216,5.3966 z"
         style="display:inline;fill:#bbb03f;fill-opacity:1;fill-rule:evenodd;stroke:none;stroke-width:1px;stroke-linecap:butt;stroke-linejoin:miter;stroke-opacity:1;filter:url(#filter5669-1)" /><path
         d="m 64.662001,1004.5086 15.177827,-15.44479 c 1.970871,-1.97975 8.288946,-2.36985 8.585239,5.90211 L 73.895084,1009.237 c -3.067403,-11.50723 -14.885834,-4.0905 -8.87594,1.2716 6.048011,6.0948 10.171696,10.1928 15.573309,16.5338 6.151348,6.9398 -8.171739,13.1348 -11.50376,2.3262 l 7.990602,-6.4013 m 7.087057,-24.13443 c 3.108066,5.35193 15.010924,14.00093 11.30101,18.15653 l -13.750849,15.4027"
         style="fill:none;fill-opacity:1;fill-rule:evenodd;stroke:#b39f7e;stroke-width:1px;stroke-linecap:butt;stroke-linejoin:miter;stroke-opacity:1"
         id="path5459" /></g><g
       id="g6315"
       transform="translate(-2.0456955,1.0393704)"><path
         style="display:inline;fill:url(#linearGradient6375-6);fill-opacity:1;stroke:none"
         d="m 15.805804,1016.8675 20.646196,-0.01 0.05614,26.6872 -20.590871,0.1703 z"
         id="rect4001-3-4" /><path
         style="fill:none;stroke:url(#linearGradient4238);stroke-width:1;stroke-linecap:butt;stroke-linejoin:miter;stroke-miterlimit:4;stroke-dashoffset:0;stroke-opacity:1"
         d="m 15.5,1016.8466 c 2.625803,0.122 21,0.016 21,0.016 0,0 0.03286,22.9921 0.04427,27 H 15.500002 Z"
         id="rect4001-1" /><path
         id="path4696"
         d="m 17.999999,1041.3622 h 8"
         style="fill:none;fill-rule:evenodd;stroke:#bbc5d8;stroke-width:2;stroke-linecap:butt;stroke-linejoin:miter;stroke-miterlimit:4;stroke-dasharray:none;stroke-opacity:1" /><path
         id="path4696-5"
         d="M 18,1038.3622 H 30"
         style="display:inline;fill:none;fill-rule:evenodd;stroke:#bbc5d8;stroke-width:2;stroke-linecap:butt;stroke-linejoin:miter;stroke-miterlimit:4;stroke-dasharray:none;stroke-opacity:1" /><path
         id="path4696-4"
         d="M 17.999999,1035.3622 H 30.000001"
         style="display:inline;fill:none;fill-rule:evenodd;stroke:#bbc5d8;stroke-width:2;stroke-linecap:butt;stroke-linejoin:miter;stroke-miterlimit:4;stroke-dasharray:none;stroke-opacity:1" /><path
         id="path4696-0"
         d="m 18.000001,1022.3623 h 12"
         style="display:inline;fill:none;fill-rule:evenodd;stroke:#bbc5d8;stroke-width:2;stroke-linecap:butt;stroke-linejoin:miter;stroke-miterlimit:4;stroke-dasharray:none;stroke-opacity:1" /><path
         id="path4696-9"
         d="m 18.000001,1025.3622 h 12"
         style="display:inline;fill:none;fill-rule:evenodd;stroke:#bbc5d8;stroke-width:2;stroke-linecap:butt;stroke-linejoin:miter;stroke-miterlimit:4;stroke-dasharray:none;stroke-opacity:1" /><path
         id="path4696-8"
         d="M 18,1028.3622 H 29"
         style="display:inline;fill:none;fill-rule:evenodd;stroke:#bbc5d8;stroke-width:2;stroke-linecap:butt;stroke-linejoin:miter;stroke-miterlimit:4;stroke-dasharray:none;stroke-opacity:1" /><path
         id="path4696-2"
         d="m 18,1031.3622 h 8"
         style="display:inline;fill:none;fill-rule:evenodd;stroke:#bbc5d8;stroke-width:2;stroke-linecap:butt;stroke-linejoin:miter;stroke-miterlimit:4;stroke-dasharray:none;stroke-opacity:1" /></g><g
       transform="matrix(0.90851066,0,0,1,-19.321843,12.024574)"
       style="display:inline"
       id="g4333"><path
         style="fill:url(#linearGradient4533);fill-opacity:1;fill-rule:evenodd;stroke:#398a43;stroke-width:1.04914px;stroke-linecap:butt;stroke-linejoin:miter;stroke-opacity:1"
         d="m 48.505033,1012.9318 c -0.24182,-0.7378 -4.276215,4.6418 -4.276215,4.6418 -11.44876,-7.9356 -17.573348,1.4122 -16.632852,8.3285 0.287455,2.114 2.873263,-9.5491 13.24418,-4.9398 0,0 -6.161054,4.0913 -5.456972,5.1523 0.390532,0.5886 13.008987,0.7195 13.731155,-0.03 0.722169,-0.75 -0.343071,-12.3401 -0.609296,-13.1524 z"
         id="path4522" /><path
         style="display:inline;fill:none;fill-opacity:1;fill-rule:evenodd;stroke:url(#linearGradient4584);stroke-width:1.04914px;stroke-linecap:butt;stroke-linejoin:miter;stroke-opacity:1"
         d="m 48.289956,1025.8745 c 0.335464,-3.4409 -0.540551,-10.8513 -0.558812,-11.097 -0.130143,0.1351 -3.305251,4.1177 -3.305251,4.1177 -13.489832,-9.4517 -15.979945,3.8837 -15.944315,4.5632 0,0 4.159907,-8.1407 14.425918,-2.5964 -3.722931,2.2 -6.36447,4.7334 -6.416153,4.8694"
         id="path4522-3" /></g><path
       style="display:inline;opacity:0.9;fill:#fefdd7;fill-opacity:0.87538;stroke:none;stroke-width:0;stroke-miterlimit:4;stroke-dasharray:none;filter:url(#filter4285-9-8-5)"
       id="path4252-6-0-8"
       d="m 2.2999628,1043.3702 1.2678863,-2.2671 -0.9589021,-2.3795 2.34832,1.2825 2.3017227,-0.9043 -1.2596655,2.2746 0.9632718,2.3759 -2.3064219,-1.2826 z"
       transform="matrix(0.07472589,0.48703815,-0.54811936,-0.00135053,613.09342,1039.898)" /><path
       style="display:inline;opacity:1;fill:#ffffff;fill-opacity:0.87538;stroke:none;stroke-width:0;stroke-miterlimit:4;stroke-dasharray:none;filter:url(#filter7334)"
       id="path4252-6-0-8-9"
       d="m 2.2999628,1043.3702 1.2678863,-2.2671 -0.9589021,-2.3795 2.34832,1.2825 2.3017227,-0.9043 -1.2596655,2.2746 0.9632718,2.3759 -2.3064219,-1.2826 z"
       transform="matrix(0.53128135,0.25924124,-0.53108285,0.68773784,582.50809,292.55975)" /><g
       id="g10"
       transform="translate(-100.77191,-0.46936006)"><path
         style="fill:url(#linearGradient1);fill-opacity:1;fill-rule:evenodd;stroke:url(#linearGradient4);stroke-width:0.999996px;stroke-linecap:butt;stroke-linejoin:miter;stroke-opacity:1"
         d="m 165.83407,1006.551 c -0.0863,-0.765 -3.56648,-0.3508 -3.56648,-0.3508 0.81119,-8.66379 -4.89977,-14.69928 -10.08996,-11.97758 -3.16779,1.66118 5.61011,3.8805 4.46076,12.26288 0,0 -3.88122,-1.2277 -4.22081,-0.036 -0.18843,0.661 6.03333,7.4067 7.02893,7.3753 2.42354,-1.8377 6.52195,-6.0824 6.38756,-7.2735 z"
         id="path4522-7" /><path
         style="display:inline;opacity:1;mix-blend-mode:normal;fill:none;fill-opacity:1;fill-rule:evenodd;stroke:#ffffff;stroke-width:0.999996px;stroke-linecap:butt;stroke-linejoin:miter;stroke-opacity:1;filter:url(#filter10)"
         d="m 159.12047,1012.0681 c 2.42354,-1.8377 4.61185,-3.5182 5.18615,-4.5704 0.54528,-0.999 -2.02794,-0.2294 -3.49139,0.8504 0.43575,-7.4624 -2.57204,-15.375 -8.06259,-12.72839"
         id="path4522-7-3" /></g></g></svg>
