<?xml version="1.0" encoding="UTF-8" standalone="no"?>
<svg
   width="75"
   height="66"
   id="svg2"
   version="1.1"
   xmlns:xlink="http://www.w3.org/1999/xlink"
   xmlns="http://www.w3.org/2000/svg"
   xmlns:svg="http://www.w3.org/2000/svg"
   xmlns:rdf="http://www.w3.org/1999/02/22-rdf-syntax-ns#"
   xmlns:cc="http://creativecommons.org/ns#"
   xmlns:dc="http://purl.org/dc/elements/1.1/">
  <defs
     id="defs4">
    <linearGradient
       id="linearGradient5419">
      <stop
         style="stop-color:#4f6fa2;stop-opacity:1"
         offset="0"
         id="stop5421" />
      <stop
         id="stop5464"
         offset="0.20532279"
         style="stop-color:#4f6fa2;stop-opacity:1" />
      <stop
         id="stop5427"
         offset="0.48438787"
         style="stop-color:#8fa5c8;stop-opacity:1" />
      <stop
         style="stop-color:#4f6fa2;stop-opacity:1"
         offset="0.77916044"
         id="stop5462" />
      <stop
         style="stop-color:#4f6fa2;stop-opacity:1"
         offset="1"
         id="stop5423" />
    </linearGradient>
    <linearGradient
       id="linearGradient5255">
      <stop
         id="stop5257"
         offset="0"
         style="stop-color:#bdcae3;stop-opacity:0" />
      <stop
         style="stop-color:#e4e6eb;stop-opacity:0.00302115"
         offset="0.31531048"
         id="stop5263" />
      <stop
         style="stop-color:#ededed;stop-opacity:1"
         offset="0.44999999"
         id="stop5261" />
      <stop
         id="stop5259"
         offset="1"
         style="stop-color:#daa24e;stop-opacity:1" />
    </linearGradient>
    <linearGradient
       id="linearGradient5184">
      <stop
         style="stop-color:#bdcae3;stop-opacity:1"
         offset="0"
         id="stop5186" />
      <stop
         style="stop-color:#f1f4f8;stop-opacity:1"
         offset="1"
         id="stop5188" />
    </linearGradient>
    <linearGradient
       id="linearGradient5176">
      <stop
         style="stop-color:#4f6fa2;stop-opacity:1"
         offset="0"
         id="stop5178" />
      <stop
         style="stop-color:#8da6cc;stop-opacity:1"
         offset="1"
         id="stop5180" />
    </linearGradient>
    <linearGradient
       xlink:href="#linearGradient4972-7"
       id="linearGradient4978"
       x1="88.220116"
       y1="1032.2668"
       x2="163.22012"
       y2="1032.2668"
       gradientUnits="userSpaceOnUse"
       gradientTransform="translate(-88.220116,-999.2669)" />
    <linearGradient
       id="linearGradient4972-7">
      <stop
         style="stop-color:#b8ccf1;stop-opacity:0.10196079"
         offset="0"
         id="stop4974-8" />
      <stop
         style="stop-color:#6e97e2;stop-opacity:0.10196079"
         offset="1"
         id="stop4976-1" />
    </linearGradient>
    <linearGradient
       xlink:href="#linearGradient4964-3"
       id="linearGradient4970"
       x1="118.38584"
       y1="1032.1835"
       x2="163.22012"
       y2="1032.2668"
       gradientUnits="userSpaceOnUse"
       gradientTransform="translate(-88.220117,-999.2669)" />
    <linearGradient
       id="linearGradient4964-3">
      <stop
         style="stop-color:#ffffff;stop-opacity:0.349"
         offset="0"
         id="stop4966-1" />
      <stop
         style="stop-color:#91ade6;stop-opacity:1"
         offset="1"
         id="stop4968-1" />
    </linearGradient>
    <linearGradient
       xlink:href="#linearGradient4956-2"
       id="linearGradient4962"
       x1="88.220116"
       y1="1042.7972"
       x2="163.22012"
       y2="1042.7972"
       gradientUnits="userSpaceOnUse"
       gradientTransform="translate(-88.220116,-999.2669)" />
    <linearGradient
       id="linearGradient4956-2">
      <stop
         style="stop-color:#fcfdfe;stop-opacity:0.25641027"
         offset="0"
         id="stop4958-5" />
      <stop
         style="stop-color:#98aae7;stop-opacity:0.40392157"
         offset="1"
         id="stop4960-6" />
    </linearGradient>
    <linearGradient
       id="linearGradient4456">
      <stop
         style="stop-color:#ffffff;stop-opacity:0.659"
         offset="0"
         id="stop4458" />
      <stop
         style="stop-color:#ffffff;stop-opacity:0.369"
         offset="1"
         id="stop4460" />
    </linearGradient>
    <linearGradient
       xlink:href="#linearGradient4258"
       id="linearGradient4264"
       x1="59.220116"
       y1="1021.2669"
       x2="62.220116"
       y2="1025.2668"
       gradientUnits="userSpaceOnUse"
       gradientTransform="matrix(1.0316501,0,0,0.89661833,67.523947,90.688509)" />
    <linearGradient
       id="linearGradient4258">
      <stop
         style="stop-color:#f4ae5f;stop-opacity:1;"
         offset="0"
         id="stop4260" />
      <stop
         id="stop4266"
         offset="0.41542953"
         style="stop-color:#eec290;stop-opacity:1" />
      <stop
         style="stop-color:#c7700e;stop-opacity:1"
         offset="1"
         id="stop4262" />
    </linearGradient>
    <linearGradient
       xlink:href="#linearGradient6411"
       id="linearGradient4240"
       gradientUnits="userSpaceOnUse"
       gradientTransform="matrix(0.57313897,0,0,0.53490325,101.76391,464.80189)"
       x1="52.166088"
       y1="1020.8994"
       x2="47.429596"
       y2="1023.1616" />
    <linearGradient
       id="linearGradient6411">
      <stop
         style="stop-color:#4f605c;stop-opacity:1"
         offset="0"
         id="stop6413" />
      <stop
         style="stop-color:#dbe2eb;stop-opacity:0"
         offset="1"
         id="stop6415" />
    </linearGradient>
    <linearGradient
       xlink:href="#linearGradient4902"
       id="linearGradient4238"
       gradientUnits="userSpaceOnUse"
       gradientTransform="matrix(1.8912767,0,0,1.7917993,103.10312,-855.64463)"
       x1="10.544736"
       y1="1038.5779"
       x2="10.544736"
       y2="1052.3228" />
    <linearGradient
       id="linearGradient4902">
      <stop
         id="stop4904"
         offset="0"
         style="stop-color:#c7b571;stop-opacity:1;" />
      <stop
         id="stop4906"
         offset="1"
         style="stop-color:#9a9a8f;stop-opacity:1" />
    </linearGradient>
    <linearGradient
       xlink:href="#linearGradient4994"
       id="linearGradient6375-6"
       x1="50.702839"
       y1="1052.4476"
       x2="22.530088"
       y2="1014.1386"
       gradientUnits="userSpaceOnUse"
       gradientTransform="matrix(0.52993944,0,0,0.50167852,103.97216,499.55743)" />
    <linearGradient
       id="linearGradient4994">
      <stop
         id="stop4996"
         offset="0"
         style="stop-color:#ffffff;stop-opacity:1" />
      <stop
         id="stop4998"
         offset="1"
         style="stop-color:#dbe2eb;stop-opacity:1" />
    </linearGradient>
    <linearGradient
       xlink:href="#linearGradient5184"
       id="linearGradient5190"
       x1="79"
       y1="1033.3622"
       x2="81"
       y2="999.36218"
       gradientUnits="userSpaceOnUse"
       gradientTransform="translate(-47.980301,1.0036001)" />
    <linearGradient
       xlink:href="#linearGradient5255"
       id="linearGradient5190-8"
       x1="78"
       y1="999.35858"
       x2="98"
       y2="1003.3586"
       gradientUnits="userSpaceOnUse"
       gradientTransform="translate(-47.91043,0.7126141)" />
    <filter
       style="color-interpolation-filters:sRGB"
       id="filter5265"
       x="-0.014231943"
       width="1.0284639"
       y="-0.049857739"
       height="1.0997155">
      <feGaussianBlur
         stdDeviation="0.16010734"
         id="feGaussianBlur5267" />
    </filter>
    <linearGradient
       xlink:href="#linearGradient5176"
       id="linearGradient5182-6"
       x1="89"
       y1="1034.3622"
       x2="84"
       y2="997.36218"
       gradientUnits="userSpaceOnUse"
       gradientTransform="translate(-47.980719,1.0042569)" />
    <filter
       style="color-interpolation-filters:sRGB"
       id="filter5335"
       x="-0.028532581"
       width="1.0410841"
       y="-0.42625092"
       height="1.932899">
      <feGaussianBlur
         stdDeviation="0.10627128"
         id="feGaussianBlur5337" />
    </filter>
    <filter
       style="color-interpolation-filters:sRGB"
       id="filter5377"
       x="-0.08524366"
       width="1.1704873"
       y="-0.062318022"
       height="1.124636">
      <feGaussianBlur
         stdDeviation="0.96064403"
         id="feGaussianBlur5379" />
    </filter>
    <filter
       height="1.0954513"
       y="-0.047725668"
       width="1.0967932"
       x="-0.048396592"
       id="filter4285-9-8"
       style="color-interpolation-filters:sRGB">
      <feGaussianBlur
         id="feGaussianBlur4287-9-5"
         stdDeviation="0.10000000000000001" />
    </filter>
    <linearGradient
       xlink:href="#linearGradient4496"
       id="linearGradient4494"
       x1="8"
       y1="1013.3622"
       x2="19"
       y2="1024.3622"
       gradientUnits="userSpaceOnUse"
       gradientTransform="matrix(0.88619287,0,0,0.87964908,0.21923835,-847.46328)" />
    <linearGradient
       id="linearGradient4496">
      <stop
         id="stop4498"
         offset="0"
         style="stop-color:#6885b2;stop-opacity:1" />
      <stop
         style="stop-color:#5777a7;stop-opacity:1"
         offset="0.54585904"
         id="stop4512" />
      <stop
         style="stop-color:#355286;stop-opacity:1"
         offset="0.63636416"
         id="stop4500" />
      <stop
         id="stop4502"
         offset="1"
         style="stop-color:#2c4a81;stop-opacity:1" />
    </linearGradient>
    <linearGradient
       xlink:href="#linearGradient4504"
       id="linearGradient4510"
       x1="3.2928932"
       y1="1020.7158"
       x2="20"
       y2="1020.7158"
       gradientUnits="userSpaceOnUse"
       gradientTransform="matrix(0.88619287,0,0,0.87964908,0.21923835,-847.46328)" />
    <linearGradient
       id="linearGradient4504">
      <stop
         style="stop-color:#b0c1db;stop-opacity:1"
         offset="0"
         id="stop4506" />
      <stop
         style="stop-color:#8299c2;stop-opacity:1"
         offset="1"
         id="stop4508" />
    </linearGradient>
    <linearGradient
       xlink:href="#linearGradient4456"
       id="linearGradient6541"
       x1="-503.11523"
       y1="879.60748"
       x2="-481.99084"
       y2="879.60748"
       gradientUnits="userSpaceOnUse"
       gradientTransform="matrix(1.2898226,0,0,1.0587247,142.52344,112.9648)" />
    <filter
       style="color-interpolation-filters:sRGB"
       id="filter6583"
       x="-0.080536416"
       width="1.1610728"
       y="-0.17590511"
       height="1.3518102">
      <feGaussianBlur
         stdDeviation="0.91431359"
         id="feGaussianBlur6585" />
    </filter>
    <linearGradient
       xlink:href="#linearGradient5419"
       id="linearGradient5431-8"
       x1="107"
       y1="54.5"
       x2="112"
       y2="54.5"
       gradientUnits="userSpaceOnUse"
       gradientTransform="matrix(1,0,0,0.92692857,-78.034355,985.69992)" />
  </defs>
  <metadata
     id="metadata7">
    <rdf:RDF>
      <cc:Work
         rdf:about="">
        <dc:format>image/svg+xml</dc:format>
        <dc:type
           rdf:resource="http://purl.org/dc/dcmitype/StillImage" />
        <dc:title />
      </cc:Work>
    </rdf:RDF>
  </metadata>
  <g
     id="layer2"
     style="display:inline">
    <path
       id="rect4113-1"
       d="M 75,0 75,66 1e-6,66 C 1e-6,41.2048 50.00969,0 75,0 Z"
       style="display:inline;fill:url(#linearGradient4978);fill-opacity:1;stroke:none" />
    <path
       id="rect4113-1-0"
       d="M 75,21.0607 75,66 1e-6,66 C 10.625001,47.804 43.509694,25.4357 75,21.0607 Z"
       style="display:inline;opacity:0.40400002;fill:url(#linearGradient4962);fill-opacity:1;stroke:none" />
    <g
       id="g11331-3-1-1-7"
       style="display:inline"
       transform="matrix(0.27903303,0,0,0.27903303,-14.618136,-107.52874)">
      <g
         style="fill:#737986;fill-opacity:1;stroke:#595e68;stroke-opacity:1"
         id="g13408-8-2" />
    </g>
    <path
       id="rect4113-1-7"
       d="M 75,4.0000001e-7 75,66 30.000003,66 C 30.000003,46.1545 47.70944,9.2500004 75,4e-7 Z"
       style="display:inline;opacity:0.18399999;fill:url(#linearGradient4970);fill-opacity:1;stroke:none" />
  </g>
  <g
     id="layer1"
     style="display:inline"
     transform="translate(0,-986.3622)">
    <ellipse
       style="display:inline;opacity:1;fill:url(#linearGradient6541);fill-opacity:1;stroke:none;stroke-width:0.99999988;stroke-linecap:round;stroke-linejoin:miter;stroke-miterlimit:4;stroke-dasharray:none;stroke-dashoffset:0;stroke-opacity:1;filter:url(#filter6583)"
       id="path5413-2"
       cx="-492.78262"
       cy="1044.2269"
       rx="13.623357"
       ry="6.2373195"
       transform="matrix(0.96487898,-0.26269477,0.49316441,0.86993613,0,0)" />
    <path
       style="fill:#bdcae3;fill-opacity:1;fill-rule:evenodd;stroke:none;stroke-width:1px;stroke-linecap:butt;stroke-linejoin:miter;stroke-opacity:1"
       d="m 26.539841,1042.293 c 3.279401,1.0021 6.617233,0.7187 9.977624,-0.061 l -0.06102,-2.502 c -3.208466,-1.0558 -6.619256,-0.6953 -10.069162,-0.061 z"
       id="path5885" />
    <path
       style="display:inline;opacity:1;fill:none;fill-opacity:1;stroke:#4f6fa2;stroke-width:0.99999988;stroke-linecap:round;stroke-linejoin:miter;stroke-miterlimit:4;stroke-dasharray:none;stroke-dashoffset:0;stroke-opacity:1"
       d="m 36.465267,1040.1132 c 0,0 0.0071,1.8039 -0.0019,1.9323 l 6.26e-4,-3e-4 c 0,0.5523 -2.269726,1.3663 -5.03115,1.3663 -2.761423,0 -4.969486,-0.8139 -4.969487,-1.3662 0.0051,-0.2201 0.02694,-1.9692 0.02694,-1.9692"
       id="path5413-0" />
    <path
       id="path5413-6-6"
       style="display:inline;opacity:1;fill:#f2f5f9;fill-opacity:0.6200608;stroke:none;stroke-width:0.99999988;stroke-linecap:round;stroke-linejoin:miter;stroke-miterlimit:4;stroke-dasharray:none;stroke-dashoffset:0;stroke-opacity:1"
       d="m 36.436809,1039.695 c 0,0.5523 -2.185383,1.5851 -4.946807,1.5851 -2.761424,0 -5.053193,-1.0328 -5.053193,-1.5851 m 10.000001,0 c 0,-0.5523 -2.238577,-1 -5.000001,-1 -2.761424,0 -5,0.4477 -5,1" />
    <path
       style="display:inline;opacity:1;fill:none;fill-opacity:1;stroke:#4f6fa2;stroke-width:0.99999988;stroke-linecap:round;stroke-linejoin:miter;stroke-miterlimit:4;stroke-dasharray:none;stroke-dashoffset:0;stroke-opacity:1"
       d="m 36.463406,1039.8622 c 0,-0.5523 -2.238576,-1 -5,-1 -2.761424,0 -5,0.4477 -5,1"
       id="path5413-6" />
    <path
       style="display:inline;fill:#f8fafe;fill-opacity:1;fill-rule:evenodd;stroke:none;stroke-width:0.99999994px;stroke-linecap:butt;stroke-linejoin:miter;stroke-opacity:1;filter:url(#filter5377)"
       d="m 82.085421,984.66775 c -3.84545,0 -7.74123,-3.3e-4 -7.9375,0.0137 -1.59022,0.143 -4.94834,3.4744 -5.44336,5.62304 -0.03808,0.1652 -0.05188,6.4475 -0.05664,12.86131 0.0048,6.4138 0.01856,12.6962 0.05664,12.8614 0.49502,2.1486 3.85314,5.48 5.44336,5.623 0.19627,0.014 4.09205,0.014 7.9375,0.014 3.84545,0 7.64063,-0.014 7.64063,-0.014 2.86421,0 7.09292,-5.998 5.6914,-5.998 0,0 -16.88421,-0.031 -17,0 -0.45565,0.1207 -0.69096,0.2187 -1.05664,0.2187 -1.13505,0 -2.71289,-1.7487 -2.71289,-2.2793 l 0,-10.4258 0,-10.42571 c 0,-0.5306 1.57784,-2.2793 2.71289,-2.2793 0.36568,0 0.60099,0.098 1.05664,0.2187 0.11579,0.031 17,0 17,0 1.40152,0 -2.82719,-5.99804 -5.6914,-5.99804 0,0 -3.79518,-0.01 -7.64063,-0.0137 z"
       id="path5145-6-9"
       transform="matrix(1.0624527,0,0,1.0599782,-50.100666,-46.023409)" />
    <path
       style="color:#000000;font-style:normal;font-variant:normal;font-weight:normal;font-stretch:normal;font-size:medium;line-height:normal;font-family:sans-serif;text-indent:0;text-align:start;text-decoration:none;text-decoration-line:none;text-decoration-style:solid;text-decoration-color:#000000;letter-spacing:normal;word-spacing:normal;text-transform:none;direction:ltr;block-progression:tb;writing-mode:lr-tb;baseline-shift:baseline;text-anchor:start;white-space:normal;clip-rule:nonzero;display:inline;overflow:visible;visibility:visible;opacity:1;isolation:auto;mix-blend-mode:normal;color-interpolation:sRGB;color-interpolation-filters:linearRGB;solid-color:#000000;solid-opacity:1;fill:url(#linearGradient5431-8);fill-opacity:1;fill-rule:evenodd;stroke:none;stroke-width:5;stroke-linecap:butt;stroke-linejoin:miter;stroke-miterlimit:4;stroke-dasharray:none;stroke-dashoffset:0;stroke-opacity:1;color-rendering:auto;image-rendering:auto;shape-rendering:auto;text-rendering:auto;enable-background:accumulate"
       d="m 28.965642,1032.9725 0,6.4885 c 2.065428,1.0033 3.577706,0.6148 5,0 l 0,-6.4885 z"
       id="path5417-3" />
    <path
       style="fill:url(#linearGradient5190);fill-opacity:1;fill-rule:evenodd;stroke:none;stroke-width:0.99999994px;stroke-linecap:butt;stroke-linejoin:miter;stroke-opacity:1"
       d="m 36.957199,998.8658 c -3.84545,0 -7.74123,-3.3e-4 -7.9375,0.0137 -1.59022,0.143 -4.94834,3.4744 -5.44336,5.623 -0.03808,0.1652 -0.05188,6.4475 -0.05664,12.8613 0.0048,6.4138 0.01856,12.6962 0.05664,12.8614 0.49502,2.1486 3.85314,5.48 5.44336,5.623 0.19627,0.014 4.09205,0.014 7.9375,0.014 3.84545,0 7.64063,-0.014 7.64063,-0.014 2.86421,0 7.09292,-5.998 5.6914,-5.998 0,0 -16.35763,0.2699 -16.47342,0.3009 -0.45565,0.1207 -1.255153,0.482 -1.620833,0.482 -1.13505,0 -2.714706,-1.7487 -2.71289,-2.2793 l 0.03761,-10.99 0,-10.4257 c 0,-0.8214 0.937623,-4.1992 2.675277,-2.9187 0.29438,0.2169 0.713829,0.1356 1.169479,0.2563 2.259721,1.0089 16.924774,0.6018 16.924774,0.6018 1.40152,0 -2.82719,-5.998 -5.6914,-5.998 0,0 -3.79518,-0.01 -7.640627,-0.0137 z"
       id="path5145" />
    <path
       style="display:inline;opacity:0.75499998;fill:url(#linearGradient5190-8);fill-opacity:1;fill-rule:evenodd;stroke:none;stroke-width:0.99999994px;stroke-linecap:butt;stroke-linejoin:miter;stroke-opacity:1;filter:url(#filter5265)"
       d="m 37.02707,998.57512 c -3.84545,0 -7.74123,-3.6e-4 -7.9375,0.0137 -1.59022,0.143 -4.948339,3.47438 -5.443359,5.62298 -0.0047,0.02 -0.0058,0.8115 -0.0098,1.0059 l 6.089844,1.0645 c 0.394365,-0.7125 1.594717,-2.3278 2.538559,-2.3278 0.36568,0 0.751442,0.2108 1.207092,0.3315 0.303854,-0.2699 16.887161,0.3009 16.887161,0.3009 1.40152,0 -2.827196,-5.99798 -5.691406,-5.99798 0,0 -3.795175,-0.01 -7.640625,-0.0137 z"
       id="path5145-2" />
    <path
       style="opacity:0.51000001;fill:none;fill-rule:evenodd;stroke:#ffffff;stroke-width:1px;stroke-linecap:butt;stroke-linejoin:miter;stroke-opacity:1"
       d="m 24.519701,1002.3622 0,30"
       id="path5339" />
    <path
       style="opacity:0.44800002;fill:none;fill-rule:evenodd;stroke:#ffffff;stroke-width:1px;stroke-linecap:butt;stroke-linejoin:miter;stroke-opacity:1;filter:url(#filter5335)"
       d="m 50.019699,1030.8622 -16.55961,0 c -0.374409,0 -1.301458,1.2998 -2.436431,0.3304 l -1.324242,-1.1311"
       id="path5329" />
    <g
       id="g5206"
       transform="translate(-76,-2.9802322e-8)">
      <path
         style="display:inline;opacity:1;fill:url(#linearGradient6375-6);fill-opacity:1;stroke:none"
         d="m 113.87146,1006.3867 14.10285,0 3.95125,5.1906 0.0487,16.7849 -18.10282,0 z"
         id="rect4001-3-4" />
      <path
         style="display:inline;fill:none;stroke:url(#linearGradient4238);stroke-width:0.99999994;stroke-linecap:butt;stroke-linejoin:miter;stroke-miterlimit:4;stroke-dashoffset:0;stroke-opacity:1"
         d="m 113.5,1005.8622 13.25722,0 c 0,0 3.98608,0.7526 2.97519,2.4861 -0.0314,0.055 2.74187,2.956 2.74187,2.956 l 0,17.5579 -18.97428,0 z"
         id="rect4001-1" />
      <path
         style="display:inline;fill:url(#linearGradient4240);fill-opacity:1;stroke:none"
         d="m 126.56662,1005.3867 5.40766,5.3943 0,5.6057 -7.93607,-4.9036 c 1.04085,-1.9665 1.7949,-4.0204 2.52837,-6.0964 z"
         id="rect4001-3-9-0" />
      <path
         style="display:inline;fill:url(#linearGradient4264);fill-opacity:1;fill-rule:evenodd;stroke:none;stroke-width:1px;stroke-linecap:butt;stroke-linejoin:miter;stroke-opacity:1"
         d="m 126.55674,1005.5011 c 1.16687,1.3182 2.574,3.0045 1.53107,5.8856 2.39988,-1.1257 4.88647,-0.5286 4.88647,-0.5286 0,-2.6898 -3.93794,-5.4837 -6.41754,-5.357 z"
         id="path5675-4" />
      <path
         id="path4696-0-4-7"
         d="m 114.97428,1011.8867 9,0"
         style="display:inline;fill:none;fill-rule:evenodd;stroke:#bbc5d8;stroke-width:0.99999994;stroke-linecap:butt;stroke-linejoin:miter;stroke-miterlimit:4;stroke-dasharray:none;stroke-opacity:1" />
      <path
         id="path4696-0-7"
         d="m 114.97428,1013.8867 10,0"
         style="display:inline;fill:none;fill-rule:evenodd;stroke:#bbc5d8;stroke-width:0.99999994;stroke-linecap:butt;stroke-linejoin:miter;stroke-miterlimit:4;stroke-dasharray:none;stroke-opacity:1" />
      <path
         id="path4696-0-4-7-3"
         d="m 114.97428,1020.8867 9,0"
         style="display:inline;fill:none;fill-rule:evenodd;stroke:#bbc5d8;stroke-width:0.99999994;stroke-linecap:butt;stroke-linejoin:miter;stroke-miterlimit:4;stroke-dasharray:none;stroke-opacity:1" />
      <path
         id="path4696-0-4-0"
         d="m 114.97428,1019.8867 9,0"
         style="display:inline;fill:none;fill-rule:evenodd;stroke:#bbc5d8;stroke-width:0.99999994;stroke-linecap:butt;stroke-linejoin:miter;stroke-miterlimit:4;stroke-dasharray:none;stroke-opacity:1" />
      <path
         id="path4696-0-7-1"
         d="m 114.97428,1022.8867 10,0"
         style="display:inline;fill:none;fill-rule:evenodd;stroke:#bbc5d8;stroke-width:0.99999994;stroke-linecap:butt;stroke-linejoin:miter;stroke-miterlimit:4;stroke-dasharray:none;stroke-opacity:1" />
      <path
         id="path4696-0-4-7-3-3"
         d="m 114.97428,1025.8867 7,0"
         style="display:inline;fill:none;fill-rule:evenodd;stroke:#bbc5d8;stroke-width:0.99999994;stroke-linecap:butt;stroke-linejoin:miter;stroke-miterlimit:4;stroke-dasharray:none;stroke-opacity:1" />
      <path
         id="path4696-0-4-0-0"
         d="m 114.97428,1024.8867 7,0"
         style="display:inline;fill:none;fill-rule:evenodd;stroke:#bbc5d8;stroke-width:0.99999994;stroke-linecap:butt;stroke-linejoin:miter;stroke-miterlimit:4;stroke-dasharray:none;stroke-opacity:1" />
      <path
         id="path4696-0"
         d="m 114.97428,1008.8867 10,0"
         style="display:inline;fill:none;fill-rule:evenodd;stroke:#bbc5d8;stroke-width:0.99999994;stroke-linecap:butt;stroke-linejoin:miter;stroke-miterlimit:4;stroke-dasharray:none;stroke-opacity:1" />
      <path
         id="path4696-0-8"
         d="m 114.97428,1015.8867 7,0"
         style="display:inline;fill:none;fill-rule:evenodd;stroke:#bbc5d8;stroke-width:1;stroke-linecap:butt;stroke-linejoin:miter;stroke-miterlimit:4;stroke-dasharray:none;stroke-opacity:1" />
      <path
         id="path4696-0-4"
         d="m 114.97428,1010.8867 9,0"
         style="display:inline;fill:none;fill-rule:evenodd;stroke:#bbc5d8;stroke-width:0.99999994;stroke-linecap:butt;stroke-linejoin:miter;stroke-miterlimit:4;stroke-dasharray:none;stroke-opacity:1" />
    </g>
    <path
       style="display:inline;fill:none;fill-opacity:1;fill-rule:evenodd;stroke:url(#linearGradient5182-6);stroke-width:0.99999994px;stroke-linecap:butt;stroke-linejoin:miter;stroke-opacity:1"
       d="m 36.956781,998.86645 c -3.84545,0 -7.74123,-3.3e-4 -7.9375,0.0137 -1.59022,0.143 -4.94834,3.47435 -5.44336,5.62295 -0.03808,0.1652 -0.05188,6.4475 -0.05664,12.8613 0.0048,6.4138 0.01856,12.6962 0.05664,12.8614 0.49502,2.1486 3.85314,5.48 5.44336,5.623 0.19627,0.014 4.09205,0.014 7.9375,0.014 3.84545,0 7.64063,-0.014 7.64063,-0.014 2.86421,0 7.09292,-5.998 5.6914,-5.998 0,0 -15.15402,-0.1442 -15.26981,-0.1132 -0.45565,0.1207 -2.458763,1.159 -2.824443,1.159 -1.13505,0 -2.675277,-2.0872 -2.675277,-2.6178 l 0,-10.9148 0,-10.4257 c 0.538723,-1.4718 1.04376,-2.6888 2.485501,-3.0808 1.024352,-0.065 1.757625,0.7802 3.014219,1.0954 0.11579,0.031 15.26981,-0.076 15.26981,-0.076 1.40152,0 -2.82719,-5.99795 -5.6914,-5.99795 0,0 -3.79518,-0.01 -7.64063,-0.0137 z"
       id="path5145-6" />
    <path
       transform="translate(0,986.3622)"
       style="display:inline;fill:url(#linearGradient4494);fill-opacity:1;fill-rule:evenodd;stroke:url(#linearGradient4510);stroke-width:0.99999994000000003px;stroke-linecap:butt;stroke-linejoin:miter;stroke-opacity:1"
       d="M 4.2071064,43.5 17.5,43.5 l 0,13.1948 z"
       id="path4478" />
    <path
       style="display:inline;opacity:0.9;fill:#ffffff;fill-opacity:0.81584156;stroke:none;stroke-width:0;stroke-miterlimit:4;stroke-dasharray:none;filter:url(#filter4285-9-8)"
       id="path4252-6-0"
       d="m 2.2999628,1043.3702 1.9823895,-2.1047 -1.6734053,-2.5419 2.1987064,2.0209 2.4513363,-1.6427 -2.0383649,2.1623 1.7419712,2.4882 -2.2030799,-2.0431 z"
       transform="matrix(-0.68431401,1.2284231,-1.0636666,-0.87657521,1122.5516,1943.5172)" />
  </g>
</svg>
